<svg xmlns="http://www.w3.org/2000/svg" viewBox="0 0 291.84 64"><defs><style>.cls-1{fill:#fff;}.cls-2,.cls-3{fill:#414042;}.cls-2,.cls-4{stroke:#414042;stroke-miterlimit:10;stroke-width:0.5px;}.cls-3{font-size:7.02px;font-family:ArialMT, Arial;}.cls-4{fill:none;}</style></defs><title>Asset 1</title><g id="Layer_2" data-name="Layer 2"><g id="Layer_1-2" data-name="Layer 1"><rect class="cls-1" width="107.1" height="64"/><path class="cls-2" d="M9.94,19.54a.88.88,0,0,1,1,1,.9.9,0,0,1-1,1,.9.9,0,0,1-1-1,.88.88,0,0,1,1-1m1,5a.89.89,0,0,1-1,1,.89.89,0,0,1-1-1,.88.88,0,0,1,1-1,.88.88,0,0,1,1,1m0,4a.88.88,0,0,1-1,1,1,1,0,1,1,0-2,.89.89,0,0,1,1,1m-1,3a1,1,0,0,1,0,2,1,1,0,1,1,0-2m1,5a.87.87,0,0,1-1,1,.88.88,0,0,1-1-1,.9.9,0,0,1,1-1,.9.9,0,0,1,1,1m0,4a.87.87,0,0,1-1,1,.88.88,0,0,1-1-1,.9.9,0,0,1,1-1,.9.9,0,0,1,1,1m0,4a.87.87,0,0,1-1,1,.88.88,0,0,1-1-1,.9.9,0,0,1,1-1,.9.9,0,0,1,1,1m-1,3a.9.9,0,0,1,1,1,.87.87,0,0,1-1,1,.88.88,0,0,1-1-1,.9.9,0,0,1,1-1m2.49-25a.9.9,0,0,1,1,1,.88.88,0,0,1-1,1,.87.87,0,0,1-1-1,.9.9,0,0,1,1-1M15,25.87a.88.88,0,0,1,1,1,.89.89,0,0,1-1,1,.9.9,0,0,1-1-1,.88.88,0,0,1,1-1M17.47,29a.87.87,0,0,1,1,1,.9.9,0,0,1-1,1,.9.9,0,0,1-1-1,.88.88,0,0,1,1-1M20,32.14a.89.89,0,0,1,1,1,.9.9,0,0,1-1,1,.9.9,0,0,1-1-1,.89.89,0,0,1,1-1m2.53,3.14a.9.9,0,0,1,1,1,.88.88,0,0,1-1,1,.88.88,0,0,1-1-1,.9.9,0,0,1,1-1M25,32.14a.89.89,0,0,0-1,1,1,1,0,1,0,1-1M27.5,29a.87.87,0,0,0-1,1,1,1,0,1,0,2,0,.88.88,0,0,0-1-1M30,25.87a.88.88,0,0,0-1,1,1,1,0,1,0,2,0,.87.87,0,0,0-1-1m2.5-3.16a.9.9,0,0,0-1,1,1,1,0,0,0,2,0,.9.9,0,0,0-1-1M35,19.54a.88.88,0,0,0-1,1,1,1,0,1,0,2,0,.89.89,0,0,0-1-1"/><path class="cls-2" d="M41.8,19.54a.89.89,0,0,1,1,1,1,1,0,1,1-2,0,.89.89,0,0,1,1-1m1,5a1,1,0,1,1-1-1,.9.9,0,0,1,1,1m0,4a1,1,0,1,1-1-1,.89.89,0,0,1,1,1m-1,3a1,1,0,1,1-1,1,.9.9,0,0,1,1-1m1,5a1,1,0,0,1-2,0,1,1,0,1,1,2,0m0,4a1,1,0,0,1-2,0,1,1,0,1,1,2,0m0,4a1,1,0,0,1-2,0,1,1,0,1,1,2,0m-1,3a.9.9,0,0,1,1,1,1,1,0,0,1-2,0,.9.9,0,0,1,1-1m4-28.19a.88.88,0,0,1,1,1,1,1,0,1,1-2,0,.89.89,0,0,1,1-1m0,12.08a1,1,0,1,1-1,1,.89.89,0,0,1,1-1m0,16.11a.9.9,0,0,1,1,1,1,1,0,0,1-2,0,.9.9,0,0,1,1-1m4-28.19a.88.88,0,0,1,1,1,1,1,0,1,1-2,0,.89.89,0,0,1,1-1m0,12.08a1,1,0,1,1-1,1,.89.89,0,0,1,1-1m0,16.11a.9.9,0,0,1,1,1,1,1,0,0,1-2,0,.9.9,0,0,1,1-1m4-28.19a.89.89,0,0,1,1,1,1,1,0,1,1-2,0,.88.88,0,0,1,1-1m0,12.08a1,1,0,1,1-1,1,.89.89,0,0,1,1-1m0,16.11a.9.9,0,0,1,1,1,1,1,0,0,1-2,0,.9.9,0,0,1,1-1m4-28.19a.89.89,0,0,1,1,1,1,1,0,1,1-2,0,.89.89,0,0,1,1-1m0,28.19a.9.9,0,0,1,1,1,1,1,0,0,1-2,0,.9.9,0,0,1,1-1"/><path class="cls-2" d="M64.15,20.54a.9.9,0,0,1,1-1,.88.88,0,0,1,1,1,.9.9,0,0,1-1,1,.91.91,0,0,1-1-1m1,5a1,1,0,1,1,0-2,.88.88,0,0,1,1,1,.89.89,0,0,1-1,1m0,4a1,1,0,1,1,1-1,.88.88,0,0,1-1,1m0,4a.89.89,0,0,1-1-1,.91.91,0,0,1,1-1,.9.9,0,0,1,1,1,.87.87,0,0,1-1,1m-1,3a.91.91,0,0,1,1-1,.9.9,0,0,1,1,1,.87.87,0,0,1-1,1,.89.89,0,0,1-1-1m1,5a.89.89,0,0,1-1-1,.91.91,0,0,1,1-1,.9.9,0,0,1,1,1,.87.87,0,0,1-1,1m0,4a.89.89,0,0,1-1-1,.91.91,0,0,1,1-1,.9.9,0,0,1,1,1,.87.87,0,0,1-1,1m-1,3a.91.91,0,0,1,1-1,.9.9,0,0,1,1,1,.87.87,0,0,1-1,1,.89.89,0,0,1-1-1m4-12.07a.87.87,0,0,1,1-1,.89.89,0,0,1,1,1,.91.91,0,0,1-1,1c-.68,0-1-.35-1-1m0-16.14a.9.9,0,0,1,1-1,.88.88,0,0,1,1,1,.9.9,0,0,1-1,1,.91.91,0,0,1-1-1m4,16.14a.88.88,0,0,1,1-1,.89.89,0,0,1,1,1,.91.91,0,0,1-1,1,.9.9,0,0,1-1-1m0-16.14a1,1,0,0,1,2,0,1,1,0,1,1-2,0m2.63,19.18a.89.89,0,0,1,1-1,.91.91,0,0,1,1,1,.89.89,0,0,1-1,1,.87.87,0,0,1-1-1m1.32-3.26a.9.9,0,0,1,1-1,.91.91,0,0,1,1,1,.89.89,0,0,1-1,1,.87.87,0,0,1-1-1m0-15.52a1,1,0,0,1,2,0,1,1,0,1,1-2,0m1.29,21.79a1,1,0,0,1,2,0,1,1,0,1,1-2,0m2-19.53a.88.88,0,0,1,1-1,.89.89,0,0,1,1,1,.9.9,0,0,1-1,1,.89.89,0,0,1-1-1m0,11.17a1,1,0,1,1,2,0,1,1,0,0,1-2,0m.6,11.4a.92.92,0,0,1,1-1,.9.9,0,0,1,1,1,.87.87,0,0,1-1,1,.89.89,0,0,1-1-1m1.1-19a1,1,0,0,1,2,0,1,1,0,1,1-2,0m0,4a1,1,0,0,1,2,0,1,1,0,1,1-2,0m1.53,18a1,1,0,1,1,2,0,1,1,0,0,1-2,0"/><path class="cls-2" d="M88.12,20.54a1,1,0,0,1,2,0,1,1,0,1,1-2,0"/><path class="cls-2" d="M90.54,23.77a.88.88,0,0,1,1-1,1,1,0,1,1,0,2,.88.88,0,0,1-1-1"/><path class="cls-2" d="M93,27a1,1,0,1,1,2,0,1,1,0,0,1-2,0"/><path class="cls-2" d="M95.36,30.21a.9.9,0,0,1,1-1,.87.87,0,0,1,1,1,.89.89,0,0,1-1,1,.91.91,0,0,1-1-1"/><path class="cls-2" d="M97.83,33.43a1,1,0,0,1,2,0,1,1,0,1,1-2,0"/><path class="cls-2" d="M100.44,36c0-.67.34-1,1-1a.87.87,0,0,1,1,1,.89.89,0,0,1-1,1,.91.91,0,0,1-1-1"/><path class="cls-2" d="M104.67,33.43a1,1,0,1,0-1,1,.89.89,0,0,0,1-1"/><path class="cls-2" d="M107.1,30.21a.9.9,0,0,0-1-1,.88.88,0,0,0-1,1,.89.89,0,0,0,1,1,.91.91,0,0,0,1-1"/><path class="cls-2" d="M109.5,27a1,1,0,1,0-1,1,.88.88,0,0,0,1-1"/><path class="cls-2" d="M111.92,23.77a.88.88,0,0,0-1-1,1,1,0,1,0,0,2,.88.88,0,0,0,1-1"/><path class="cls-2" d="M114.34,20.54a1,1,0,0,0-2,0,1,1,0,1,0,2,0"/><path class="cls-2" d="M93.2,48.71a.91.91,0,0,0-1-1,.9.9,0,0,0-1,1,.87.87,0,0,0,1,1,.89.89,0,0,0,1-1"/><path class="cls-2" d="M95.61,45.49a.9.9,0,0,0-1-1,1,1,0,0,0,0,2,.89.89,0,0,0,1-1"/><path class="cls-2" d="M98,42.26a1,1,0,0,0-2,0,1,1,0,1,0,2,0"/><path class="cls-2" d="M100.44,39a.89.89,0,0,0-1-1,1,1,0,1,0,0,2,.88.88,0,0,0,1-1"/><path class="cls-2" d="M126.06,34c0,.67-.34,1-1,1a.87.87,0,0,1-1-1,.89.89,0,0,1,1-1,.91.91,0,0,1,1,1m.57-4a.91.91,0,0,1-1,1,.89.89,0,0,1-1-1,.87.87,0,0,1,1-1,.89.89,0,0,1,1,1m0,7.93c0-.67-.35-1-1-1s-1,.31-1,1a.9.9,0,0,0,1,1,.92.92,0,0,0,1-1m1.55-11.63a.87.87,0,0,1-1,1,.89.89,0,0,1-1-1,.91.91,0,0,1,1-1,.89.89,0,0,1,1,1m0,15.31a.89.89,0,0,0-1-1,.91.91,0,0,0-1,1,.9.9,0,0,0,1,1,.87.87,0,0,0,1-1m2.55-18.42a.91.91,0,0,1-1,1,.89.89,0,0,1-1-1,.87.87,0,0,1,1-1c.68,0,1,.32,1,1m0,21.52a.9.9,0,0,0-1-1,1,1,0,0,0,0,2,.89.89,0,0,0,1-1M134,20.92a.87.87,0,0,1-1,1,.89.89,0,0,1-1-1,.91.91,0,0,1,1-1,.89.89,0,0,1,1,1m0,26.17a.87.87,0,0,0-1-1c-.68,0-1,.32-1,1a.91.91,0,0,0,1,1,.89.89,0,0,0,1-1m3.76-27.51a.89.89,0,0,1-1,1,.9.9,0,0,1-1-1,.91.91,0,0,1,1-1,.89.89,0,0,1,1,1m0,28.89a.9.9,0,0,0-1-1,.91.91,0,0,0-1,1,.89.89,0,0,0,1,1,.87.87,0,0,0,1-1M139.44,34a.86.86,0,0,0,1,1,.89.89,0,0,0,1-1,.91.91,0,0,0-1-1c-.68,0-1,.35-1,1m.35-14.75a1,1,0,0,0,2,0,1,1,0,1,0-2,0m2,29.49a1,1,0,1,0-2,0,1,1,0,0,0,2,0M143.47,34a.86.86,0,0,0,1,1c.68,0,1-.32,1-1a.91.91,0,0,0-1-1c-.67,0-1,.35-1,1m.35-14.43a1,1,0,1,0,2,0,1,1,0,1,0-2,0m0,28.89a1,1,0,1,1,2,0,1,1,0,0,1-2,0M147.5,34a.87.87,0,0,0,1,1,.89.89,0,0,0,1-1,.91.91,0,0,0-1-1,.89.89,0,0,0-1,1m.07-13.09a.87.87,0,0,0,1,1,.9.9,0,0,0,1-1,.92.92,0,0,0-1-1,.89.89,0,0,0-1,1m0,26.17a.87.87,0,0,1,1-1,.9.9,0,0,1,1,1,.92.92,0,0,1-1,1,.89.89,0,0,1-1-1m3.29-23.85a.91.91,0,0,0,1,1,.89.89,0,0,0,1-1,.87.87,0,0,0-1-1,.89.89,0,0,0-1,1m0,21.52a.9.9,0,0,1,1-1,1,1,0,0,1,0,2,.9.9,0,0,1-1-1M151.52,34a.87.87,0,0,0,1,1,.89.89,0,0,0,1-1,.91.91,0,0,0-1-1,.89.89,0,0,0-1,1m1.89,7.65a.89.89,0,0,1,1-1,.91.91,0,0,1,1,1,.9.9,0,0,1-1,1,.87.87,0,0,1-1-1M155,38c0-.67.35-1,1-1a.86.86,0,0,1,1,1,.9.9,0,0,1-1,1,.92.92,0,0,1-1-1m.58-4a1,1,0,0,0,2,0,1,1,0,1,0-2,0"/><path class="cls-2" d="M157.84,48.14a1,1,0,0,1,2,0,1,1,0,1,1-2,0m1.9-3.57a.9.9,0,0,1,1-1,.92.92,0,0,1,1,1,.89.89,0,0,1-1,1,.87.87,0,0,1-1-1M161.63,41a1,1,0,1,1,2,0,1,1,0,0,1-2,0m1.88-3.54a.92.92,0,0,1,1-1,.9.9,0,0,1,1,1,.87.87,0,0,1-1,1c-.68,0-1-.32-1-1m1.89-3.6a.9.9,0,0,1,1-1,.88.88,0,0,1,1,1,.9.9,0,0,1-1,1,.91.91,0,0,1-1-1m3.92,3.54a.9.9,0,0,0-1-1,.86.86,0,0,0-1,1,.87.87,0,0,0,1,1,.93.93,0,0,0,1-1m-2-7.09a1,1,0,0,1,2,0,1,1,0,1,1-2,0m1.89-3.54a.88.88,0,0,1,1-1,.9.9,0,0,1,1,1,.91.91,0,0,1-1,1,.89.89,0,0,1-1-1m1.85-3.55a1,1,0,0,1,2,0,1,1,0,1,1-2,0m2,14.18a.86.86,0,0,0-1-1,1,1,0,1,0,0,2,.9.9,0,0,0,1-1M175,19.67a1,1,0,1,0-2,0,.89.89,0,0,0,1.05,1c.67,0,1-.33,1-1m1.88,3.55c0-.68-.34-1-1-1a.87.87,0,0,0-1,1,.94.94,0,0,0,1,1,.88.88,0,0,0,1-1m0,14.2a.86.86,0,0,0-1-1,.9.9,0,0,0-1,1,.92.92,0,0,0,1,1,.89.89,0,0,0,1-1m1.89-10.66a.85.85,0,0,0-1-1,.9.9,0,0,0-1,1,1,1,0,0,0,1.05,1,.89.89,0,0,0,1-1m1.89,3.57a.87.87,0,0,0-1-1,1,1,0,1,0,0,2,.86.86,0,0,0,1-1m0,7.09a.85.85,0,0,0-1-1,.91.91,0,0,0-1,1,.92.92,0,0,0,1,1,.88.88,0,0,0,1-1m1.9-3.54a.89.89,0,0,0-1-1,.92.92,0,0,0-1,1c0,.67.38,1,1,1s1-.35,1-1m1.9,3.54a.87.87,0,0,0-1-1,.9.9,0,0,0-1,1,.87.87,0,0,0,1,1,.94.94,0,0,0,1-1m1.89,3.6c0-.67-.36-1-1-1a.9.9,0,0,0-1,1,1,1,0,0,0,2,0m1.88,3.55a.94.94,0,0,0-1-1,.9.9,0,0,0-1,1.05,1,1,0,0,0,2,0m1.9,3.54a.88.88,0,0,0-1-1,.84.84,0,0,0-1,1,.9.9,0,0,0,1,1,.93.93,0,0,0,1-1"/><path class="cls-2" d="M194.53,19.9c0-.67.34-1,1-1a.87.87,0,0,1,1,1,.89.89,0,0,1-1,1,.91.91,0,0,1-1-1m1,5a.9.9,0,0,1-1-1,.89.89,0,0,1,1-1,.88.88,0,0,1,1,1,.89.89,0,0,1-1,1m0,4a1,1,0,1,1,1-1,.88.88,0,0,1-1,1m0,4a1,1,0,1,1,1-1,.88.88,0,0,1-1,1m-1,3a.91.91,0,0,1,1-1,.89.89,0,0,1,1,1,.88.88,0,0,1-1,1,.89.89,0,0,1-1-1m1,5c-.68,0-1-.31-1-1a.91.91,0,0,1,1-1,.89.89,0,0,1,1,1,.87.87,0,0,1-1,1m0,4c-.68,0-1-.31-1-1a.91.91,0,0,1,1-1,.9.9,0,0,1,1,1,.86.86,0,0,1-1,1m-1,3a.91.91,0,0,1,1-1,.89.89,0,0,1,1,1,.87.87,0,0,1-1,1c-.68,0-1-.32-1-1m4-12.07a1,1,0,0,1,2,0,1,1,0,1,1-2,0m0-16.14a1,1,0,0,1,2,0,1,1,0,1,1-2,0m4,16.14a1,1,0,0,1,2,0,1,1,0,1,1-2,0m0-16.14a1,1,0,0,1,2,0,1,1,0,1,1-2,0m2.62,19.18a1,1,0,1,1,2,0c0,.68-.33,1-1,1a.87.87,0,0,1-1-1m1.33-3.26a.89.89,0,0,1,1-1,.9.9,0,0,1,1,1,.88.88,0,0,1-1,1,.87.87,0,0,1-1-1m0-15.51a.9.9,0,0,1,1-1,.88.88,0,0,1,1,1,.87.87,0,0,1-1,1,.9.9,0,0,1-1-1m1.3,21.78a.87.87,0,0,1,1-1,.89.89,0,0,1,1,1,.92.92,0,0,1-1,1,.9.9,0,0,1-1-1m2-19.54a.87.87,0,0,1,1-1,.89.89,0,0,1,1,1,.91.91,0,0,1-1,1c-.67,0-1-.34-1-1m0,11.17a1,1,0,1,1,2,0,1,1,0,0,1-2,0m.6,11.41a1,1,0,1,1,2,0,1,1,0,0,1-2,0m1.1-19a.87.87,0,0,1,1-1,.9.9,0,0,1,1,1,.91.91,0,0,1-1,1,.89.89,0,0,1-1-1m0,4a.89.89,0,0,1,1-1,.88.88,0,0,1,1,1,.89.89,0,0,1-1,1,.91.91,0,0,1-1-1m1.52,18a.91.91,0,0,1,1-1,.9.9,0,0,1,1,1,.87.87,0,0,1-1,1,.89.89,0,0,1-1-1"/><path class="cls-2" d="M219.22,34a.87.87,0,0,1-1,1,.89.89,0,0,1-1-1,.91.91,0,0,1,1-1,.9.9,0,0,1,1,1m.56-4a.89.89,0,0,1-1,1,.9.9,0,0,1-1-1,.88.88,0,0,1,1-1,.87.87,0,0,1,1,1m0,7.93a.87.87,0,0,0-1-1,.88.88,0,0,0-1,1,.91.91,0,0,0,1,1,.9.9,0,0,0,1-1m1.58-11.63a1,1,0,0,1-2,0,1,1,0,1,1,2,0m0,15.31a1,1,0,1,0-2,0,1,1,0,0,0,2,0m2.53-18.42a.89.89,0,0,1-1,1,.9.9,0,0,1-1-1,.88.88,0,0,1,1-1,.87.87,0,0,1,1,1m0,21.52a.88.88,0,0,0-1-1,1,1,0,1,0,0,2,.88.88,0,0,0,1-1m3.31-23.84a1,1,0,0,1-2,0,1,1,0,1,1,2,0m0,26.17a1,1,0,0,0-2,0,1,1,0,1,0,2,0M231,19.58a.9.9,0,0,1-1,1,.89.89,0,0,1-1-1,.89.89,0,0,1,1-1,.91.91,0,0,1,1,1m0,28.89a.91.91,0,0,0-1-1,.9.9,0,0,0-1,1,.87.87,0,0,0,1,1,.89.89,0,0,0,1-1m2-29.21a.88.88,0,0,0,1,1,.89.89,0,0,0,1-1,.9.9,0,0,0-1-1,.89.89,0,0,0-1,1m2,29.49a.91.91,0,0,0-1-1,.9.9,0,0,0-1,1,.87.87,0,0,0,1,1c.68,0,1-.32,1-1m2-29.17a1,1,0,1,0,2,0,1,1,0,1,0-2,0m0,28.89a1,1,0,1,1,2,0,1,1,0,0,1-2,0m3.75-27.55a1,1,0,0,0,2,0,1,1,0,1,0-2,0m0,26.17a1,1,0,0,1,2,0,1,1,0,1,1-2,0"/><path class="cls-2" d="M249.24,18.91a.87.87,0,0,1,1,1,.9.9,0,0,1-1,1,.91.91,0,0,1-1-1c0-.67.34-1,1-1m1,5a.89.89,0,0,1-1,1,.9.9,0,0,1-1-1c0-.67.34-1,1-1a.87.87,0,0,1,1,1m0,4a.88.88,0,0,1-1,1,1,1,0,1,1,1-1m-1,3a.89.89,0,0,1,1,1,.88.88,0,0,1-1,1,.89.89,0,0,1-1-1,.9.9,0,0,1,1-1m1,5a.88.88,0,0,1-1,1,.89.89,0,0,1-1-1,.91.91,0,0,1,1-1,.9.9,0,0,1,1,1m0,4a.87.87,0,0,1-1,1c-.68,0-1-.31-1-1a.91.91,0,0,1,1-1,.9.9,0,0,1,1,1m0,4c0,.67-.33,1-1,1s-1-.31-1-1a.91.91,0,0,1,1-1,.9.9,0,0,1,1,1m-1,3a.9.9,0,0,1,1,1,.88.88,0,0,1-1,1,.89.89,0,0,1-1-1,.91.91,0,0,1,1-1"/><path class="cls-2" d="M254.67,48.14a1,1,0,0,1,2,0,1,1,0,1,1-2,0m1.89-3.57a1,1,0,1,1,2,0,1,1,0,0,1-2,0m1.9-3.55a1,1,0,1,1,2,0,1,1,0,0,1-2,0m1.89-3.54a1,1,0,1,1,2,0,1,1,0,0,1-2,0m1.9-3.6a1,1,0,0,1,2,0,1,1,0,1,1-2,0m3.9,3.54a.89.89,0,0,0-1-1,.87.87,0,0,0-1,1,.88.88,0,0,0,1,1,.93.93,0,0,0,1-1m-2-7.09a1,1,0,0,1,2,0,1,1,0,1,1-2,0M266,26.79a1,1,0,1,1,1,1,.9.9,0,0,1-1-1m1.85-3.55a1,1,0,0,1,2,0,1,1,0,1,1-2,0m2,14.18a.86.86,0,0,0-1-1,.91.91,0,0,0-1,1,.92.92,0,0,0,1.05,1,.89.89,0,0,0,1-1m1.89-17.75a.9.9,0,0,0-1-1,.92.92,0,0,0-1,1,.89.89,0,0,0,1,1,.85.85,0,0,0,1-1m1.89,3.55c0-.68-.33-1-1-1a.88.88,0,0,0-1,1,.94.94,0,0,0,1.05,1,.88.88,0,0,0,1-1m0,14.2a.85.85,0,0,0-1-1,.91.91,0,0,0-1,1,.92.92,0,0,0,1.05,1,.89.89,0,0,0,1-1m1.9-10.66a.86.86,0,0,0-1-1,.88.88,0,0,0-1,1,.93.93,0,0,0,1,1,.9.9,0,0,0,1-1m1.89,3.57a.88.88,0,0,0-1-1,1,1,0,1,0,0,2,.87.87,0,0,0,1-1m0,7.09a.86.86,0,0,0-1-1,.9.9,0,0,0-1,1,.92.92,0,0,0,1,1,.89.89,0,0,0,1-1m1.9-3.54a.89.89,0,0,0-1-1,.93.93,0,0,0-1,1c0,.67.37,1,1,1a.87.87,0,0,0,1-1m1.88,3.54a.85.85,0,0,0-1-1,.91.91,0,0,0-1,1,.88.88,0,0,0,1,1,.93.93,0,0,0,1-1m1.9,3.6a.92.92,0,0,0-1-1,.9.9,0,0,0-1,1,1,1,0,0,0,2,0m1.9,3.55a1,1,0,0,0-1.05-1,.9.9,0,0,0-1,1.05c0,.67.33,1,1,1s1-.32,1-1m1.88,3.54a.87.87,0,0,0-1-1,.85.85,0,0,0-1,1,.9.9,0,0,0,1,1,.93.93,0,0,0,1-1"/><text class="cls-3" transform="translate(284.9 24.41)">R</text><path class="cls-4" d="M283.28,22a4.16,4.16,0,1,1,4.15,4.16A4.15,4.15,0,0,1,283.28,22Z"/></g></g></svg>